<svg width="52" height="52" viewBox="0 0 52 52" fill="none" xmlns="http://www.w3.org/2000/svg">
<rect x="0.5" y="0.5" width="51" height="51" rx="25.5" stroke="white"/>
<path d="M37 25.5C37.2761 25.5 37.5 25.7239 37.5 26C37.5 26.2761 37.2761 26.5 37 26.5L37 26L37 25.5ZM15 26L20 23.1132L20 28.8868L15 26ZM37 26L37 26.5L34.7241 26.5L34.7241 26L34.7241 25.5L37 25.5L37 26ZM34.7241 26L34.7241 26.5L19.5 26.5L19.5 26L19.5 25.5L34.7241 25.5L34.7241 26Z" fill="url(#paint0_linear_1673_34)"/>
<defs>
<linearGradient id="paint0_linear_1673_34" x1="37" y1="25.5" x2="15" y2="25.5" gradientUnits="userSpaceOnUse">
<stop stop-color="white" stop-opacity="0"/>
<stop offset="1" stop-color="white"/>
</linearGradient>
</defs>
</svg>
