<svg width="526" height="102" viewBox="0 0 526 102" fill="none" xmlns="http://www.w3.org/2000/svg">
<g clip-path="url(#clip0_1661_145)">
<path d="M337.762 92.4871C327.285 81.1067 317.105 69.4112 306.636 58.0094C302.573 52.4981 303.336 46.6418 308.059 41.8801C319.341 30.2867 329.376 17.4114 340.603 5.78393C343.955 2.30848 346.353 0.383352 351.442 0.0255793C404.281 0.225757 457.35 -0.327933 510.014 0.370566C513.379 0.41741 518.392 -0.102197 521.493 0.37908C522.975 0.609076 524.359 1.972 524.938 3.31788L525.032 98.1135C524.142 100.345 522.025 101.683 519.614 101.631C468.147 101.508 416.479 101.891 365.191 101.287C360.408 101.231 349.815 102.138 345.974 100.405C342.831 98.9866 340.105 95.0298 337.766 92.4914L337.762 92.4871ZM309.899 51.7059C310.648 52.4598 311.892 52.0637 312.054 50.9734C312.48 48.1751 308.106 49.9043 309.899 51.7059ZM310.819 55.0706C311.241 56.5784 313.77 56.0119 313.281 54.2486C312.859 52.7409 310.329 53.3074 310.819 55.0706ZM311.177 45.4791C310.423 46.2329 310.819 47.4723 311.909 47.6385C314.707 48.0644 312.978 43.686 311.177 45.4791ZM315.798 56.6593C314 54.8662 312.267 59.2446 315.065 58.8187C316.151 58.6526 316.552 57.4132 315.798 56.6593ZM313.69 44.3973C314.06 44.9808 316.373 44.9808 316.151 43.4006C315.802 40.909 312.667 42.7873 313.69 44.3973ZM316.603 61.6084C317.621 62.6519 319.686 61.0888 318.434 59.6024C317.527 58.5205 315.329 60.3094 316.603 61.6084ZM318.707 39.6909C318.336 39.1074 316.024 39.1074 316.245 40.6875C316.594 43.1791 319.729 41.3009 318.707 39.6909ZM319.128 64.0191C319.444 65.0668 320.981 65.2202 321.471 64.2448C322.544 62.1153 318.302 61.2762 319.128 64.0191ZM321.224 38.6091C321.978 37.8552 321.582 36.6158 320.491 36.4497C317.693 36.0238 319.422 40.4022 321.224 38.6091ZM321.667 66.894C322.025 68.1888 324.789 68.3038 324.116 66.0677C323.652 64.5302 321.19 65.1648 321.667 66.894ZM321.654 34.9547C322.204 37.0588 325.649 35.3892 323.873 33.7281C322.749 32.6761 321.433 34.0987 321.654 34.9547ZM322.974 52.5109C324.495 61.4466 339.7 60.1901 337.818 49.1504C336.331 40.4363 321.19 42.0121 322.974 52.5109ZM326.646 68.4784C325.905 67.7203 324.478 68.3123 324.465 69.5134C324.44 71.9027 328.341 70.2076 326.646 68.4784ZM324.542 32.0713C324.963 33.5791 327.493 33.0126 327.004 31.2493C326.582 29.7416 324.052 30.308 324.542 32.0713ZM327.08 72.6481C327.336 73.6192 329.154 74.1643 329.555 72.976C330.402 70.4632 326.637 70.97 327.08 72.6481ZM329.555 29.699C330.79 27.7483 327.408 26.3257 327.131 28.681C326.957 30.1675 329.189 30.2782 329.555 29.699ZM329.964 75.8339C330.385 77.3417 332.915 76.7752 332.425 75.0119C332.004 73.5042 329.474 74.0706 329.964 75.8339ZM330.287 24.6817C329.644 25.0778 329.734 27.25 331.305 27.1179C333.507 26.9305 332.319 23.438 330.287 24.6817ZM334.977 77.3885C334.18 76.1108 331.395 77.9039 332.945 79.2625C334.414 80.553 335.709 78.564 334.977 77.3885ZM332.83 23.4721C333.354 25.031 336.672 23.2719 334.495 21.7812C333.452 21.0657 332.425 22.271 332.83 23.4721ZM335.705 82.41C337.379 83.4706 339.129 80.1782 336.727 79.9738C335.16 79.8418 335.062 82.0054 335.705 82.41ZM335.39 20.2522C335.811 21.76 338.341 21.1935 337.852 19.4302C337.43 17.9225 334.9 18.4889 335.39 20.2522ZM337.941 84.4842C338.222 85.9323 340.829 85.5873 340.714 84.267C340.552 82.3674 337.643 82.9339 337.941 84.4842ZM338.26 17.8799C339.057 19.1576 341.842 17.3645 340.292 16.0059C338.823 14.7153 337.528 16.7044 338.26 17.8799ZM340.812 87.653C341.233 89.1608 343.763 88.5943 343.273 86.831C342.852 85.3233 340.322 85.8897 340.812 87.653ZM340.799 14.5194C341.089 15.4181 342.89 15.746 343.261 14.5066C344.053 11.866 340.156 12.5347 340.799 14.5194ZM343.687 89.2076C342.954 90.3789 344.253 92.3679 345.718 91.0816C347.269 89.723 344.483 87.9299 343.687 89.2076ZM343.682 11.6445C344.287 13.4291 347.699 11.3208 345.335 9.97066C344.185 9.31476 343.282 10.4605 343.682 11.6445ZM346.225 93.4071C346.689 95.1874 349.385 94.5997 348.7 92.5681C348.189 91.0476 345.897 92.1464 346.225 93.4071ZM346.587 7.14686C345.475 8.23294 347.298 10.2603 348.589 8.98681C349.879 7.71332 347.801 5.96282 346.587 7.14686ZM350.067 95.3237C350.433 96.627 353.189 96.7165 352.516 94.4975C352.06 92.994 349.615 93.7138 350.067 95.3237ZM350.42 5.23025C348.627 7.03186 353.001 8.76533 352.575 5.96282C352.409 4.87248 351.17 4.47638 350.42 5.23025ZM354.245 94.0332C353.206 95.0554 354.765 97.1211 356.251 95.8689C357.329 94.9574 355.544 92.7597 354.245 94.0332ZM356.319 5.23025C354.59 3.53511 352.895 7.44074 355.284 7.41518C356.485 7.4024 357.077 5.97559 356.319 5.23025ZM360.148 94.0332C359.399 93.2793 358.155 93.6754 357.993 94.7658C357.567 97.564 361.941 95.8348 360.148 94.0332ZM358.04 6.51651C358.462 8.02424 360.991 7.45777 360.502 5.69449C360.08 4.18676 357.55 4.75322 358.04 6.51651ZM362.227 94.0332C360.434 95.8348 364.808 97.5683 364.382 94.7658C364.216 93.6754 362.976 93.2793 362.227 94.0332ZM362.227 5.23024C360.434 7.03186 364.808 8.76532 364.382 5.96282C364.216 4.87248 362.976 4.47638 362.227 5.23024ZM368.126 94.0332C366.396 92.3381 364.701 96.2437 367.091 96.2181C368.292 96.2054 368.884 94.7786 368.126 94.0332ZM368.126 5.23024C366.328 3.43715 364.595 7.81554 367.393 7.38963C368.479 7.22352 368.879 5.98411 368.126 5.23024ZM370.161 96.1457C371.835 97.2063 373.586 93.914 371.184 93.7095C369.616 93.5775 369.518 95.7411 370.161 96.1457ZM369.846 6.52076C370.212 7.82406 372.968 7.91349 372.295 5.69449C371.839 4.19101 369.395 4.91081 369.846 6.52076ZM374.029 94.0332C372.236 95.8348 376.61 97.5683 376.184 94.7658C376.018 93.6754 374.778 93.2793 374.029 94.0332ZM373.679 6.20984C373.833 8.08812 376.737 7.56851 376.444 5.99689C376.133 4.32305 373.564 4.84266 373.679 6.20984ZM379.928 94.0332C379.178 93.2793 377.934 93.6754 377.772 94.7658C377.347 97.564 381.721 95.8348 379.928 94.0332ZM379.928 5.23024C378.13 3.43715 376.397 7.81554 379.195 7.38963C380.281 7.22352 380.681 5.98411 379.928 5.23024ZM381.653 95.3237C381.946 96.3672 383.952 96.6994 384.174 95.3791C384.553 93.1005 381.086 93.3049 381.653 95.3237ZM382.006 5.23024C380.213 7.03186 384.587 8.76532 384.161 5.96282C383.995 4.87248 382.756 4.47638 382.006 5.23024ZM385.486 95.0128C385.618 96.6824 388.629 96.8102 387.93 94.4975C387.432 92.8534 385.413 94.046 385.486 95.0128ZM387.909 5.23024C386.18 3.53511 384.485 7.44074 386.874 7.41518C388.075 7.4024 388.667 5.97559 387.909 5.23024ZM391.734 94.0332C390.984 93.2793 389.741 93.6754 389.579 94.7658C389.153 97.564 393.527 95.8348 391.734 94.0332ZM389.945 7.34278C391.551 8.36497 393.429 5.22599 390.942 4.87674C389.362 4.65526 389.362 6.97223 389.945 7.34278ZM393.812 94.0332C392.121 95.7624 396.019 97.4618 395.993 95.0682C395.98 93.8671 394.553 93.2751 393.812 94.0332ZM393.812 5.23024C392.019 7.03186 396.393 8.76532 395.967 5.96282C395.801 4.87248 394.562 4.47638 393.812 5.23024ZM397.594 95.6645C398.123 97.2446 401.372 95.4685 399.332 93.9267C398.178 93.0536 397.207 94.506 397.594 95.6645ZM399.711 5.23024C397.914 3.43714 396.18 7.81554 398.979 7.38963C400.065 7.22352 400.465 5.98411 399.711 5.23024ZM403.574 96.1415C404.852 95.3408 403.059 92.5553 401.705 94.1056C400.418 95.575 402.403 96.8741 403.574 96.1415ZM401.436 6.52076C401.803 7.82405 404.558 7.91349 403.885 5.69448C403.429 4.19101 400.985 4.91081 401.436 6.52076ZM405.619 94.0332C403.826 95.8348 408.2 97.5683 407.774 94.7658C407.608 93.6754 406.368 93.2793 405.619 94.0332ZM405.265 6.20984C405.397 7.87943 408.408 8.0072 407.71 5.69448C407.212 4.05046 405.193 5.24302 405.265 6.20984ZM411.518 94.0332C410.768 93.2793 409.524 93.6754 409.362 94.7658C408.937 97.564 413.311 95.8348 411.518 94.0332ZM411.518 5.23024C409.72 3.43714 407.987 7.81554 410.785 7.38963C411.871 7.22352 412.271 5.98411 411.518 5.23024ZM415.347 94.0332C414.312 92.9769 412.403 94.5954 413.332 95.8944C414.26 97.1935 416.837 95.5622 415.347 94.0332ZM413.238 6.52076C413.605 7.82405 416.36 7.91349 415.687 5.69448C415.232 4.19101 412.787 4.91081 413.238 6.52076ZM417.425 94.0332C416.152 95.3322 418.349 97.1211 419.256 96.0393C420.509 94.5528 418.443 92.9897 417.425 94.0332ZM417.421 5.23024C416.663 5.97559 417.255 7.4024 418.456 7.41518C420.845 7.44074 419.15 3.53511 417.421 5.23024ZM420.96 95.0682C420.96 96.0691 422.34 96.8783 423.226 95.8519C424.883 93.931 420.964 92.6575 420.96 95.0682ZM421.207 6.86149C421.718 8.39052 425.258 6.66557 422.941 5.12802C421.71 4.31027 420.824 5.71153 421.207 6.86149ZM427.149 94.0332C426.408 93.2751 424.981 93.8671 424.968 95.0682C424.942 97.4576 428.844 95.7624 427.149 94.0332ZM427.183 7.33851C428.46 6.5378 426.667 3.75232 425.313 5.30265C424.027 6.77205 426.011 8.07109 427.183 7.33851ZM429.227 94.0332C427.736 95.558 430.317 97.185 431.242 95.8944C432.166 94.6039 430.262 92.9769 429.227 94.0332ZM429.227 5.23024C427.434 7.03185 431.808 8.76532 431.382 5.96282C431.216 4.87248 429.977 4.47637 429.227 5.23024ZM432.686 95.328C433.069 96.7889 435.824 96.7463 435.152 94.4975C434.623 92.7342 432.387 94.1908 432.686 95.328ZM433.009 6.86149C433.537 8.44163 436.787 6.66557 434.747 5.12377C433.593 4.25064 432.622 5.703 433.009 6.86149ZM436.847 95.6559C437.447 97.4277 440.795 95.4004 438.563 93.9225C437.507 93.224 436.438 94.4506 436.847 95.6559ZM438.955 5.23024C437.158 3.43714 435.424 7.81554 438.222 7.38963C439.308 7.22352 439.709 5.98411 438.955 5.23024ZM442.784 94.0332C441.698 92.9216 439.675 94.7487 440.948 96.0393C442.222 97.3298 443.972 95.2513 442.784 94.0332ZM440.68 6.52076C440.974 7.56425 442.98 7.89646 443.201 6.57613C443.58 4.29749 440.113 4.50193 440.68 6.52076ZM444.862 94.0332C443.589 95.3322 445.787 97.1211 446.694 96.0393C447.946 94.5528 445.88 92.9897 444.862 94.0332ZM444.509 6.20984C444.679 8.27552 448.001 7.7772 446.851 5.46875C446.178 4.11434 444.436 5.3708 444.509 6.20984ZM448.402 95.0682C448.406 97.4363 452.682 95.937 450.54 94.0843C449.62 93.2921 448.402 94.1823 448.402 95.0682ZM448.649 6.85297C449.249 8.62477 452.593 6.60169 450.378 5.13228C449.151 4.31879 448.261 5.703 448.649 6.85297ZM454.59 94.0332C453.057 92.4616 451.076 96.1159 453.551 96.363C454.927 96.4992 455.378 94.8424 454.59 94.0332ZM454.624 7.33851C455.902 6.5378 454.109 3.75232 452.755 5.30264C451.468 6.77205 453.453 8.07108 454.624 7.33851ZM456.664 94.0332C455.48 95.2513 457.18 97.3766 458.5 96.0393C459.82 94.7019 457.746 92.9216 456.664 94.0332ZM456.669 5.23024C455.395 6.52927 457.593 8.31812 458.5 7.2363C459.752 5.74986 457.687 4.18675 456.669 5.23024ZM460.123 95.328C460.527 96.8655 463.33 96.6355 462.602 94.4804C462.086 92.9556 459.795 94.0673 460.123 95.328ZM460.455 6.85297C461.073 8.67162 464.135 6.59742 462.189 5.12802C461.039 4.25916 460.063 5.69448 460.455 6.85297ZM464.288 95.6559C464.889 97.4277 468.236 95.4004 466.005 93.9225C464.948 93.224 463.879 94.4506 464.288 95.6559ZM466.392 5.23024C465.362 4.16972 463.3 5.79671 464.557 7.23203C465.66 8.48848 467.568 6.43558 466.392 5.23024ZM470.221 94.0332C469.135 92.9216 467.112 94.7487 468.386 96.0393C469.659 97.3298 471.41 95.2513 470.221 94.0332ZM468.471 7.30444C469.493 8.3607 471.571 6.73798 470.306 5.29839C469.203 4.03768 467.087 5.87337 468.471 7.30444ZM472.3 94.0332C471.124 95.2385 473.032 97.2914 474.135 96.035C475.392 94.5997 473.335 92.9769 472.3 94.0332ZM471.929 6.52502C472.312 7.9859 475.068 7.94331 474.395 5.69448C473.867 3.93121 471.631 5.38783 471.929 6.52502ZM475.839 95.0682C475.839 97.4959 479.949 95.8646 477.943 94.1184C477.066 93.356 475.839 94.1439 475.839 95.0682ZM476.09 6.85297C476.691 8.62477 480.039 6.59743 477.807 5.11951C476.75 4.42101 475.681 5.64764 476.09 6.85297ZM482.028 94.0332C480.941 92.9216 478.918 94.7487 480.192 96.0393C481.465 97.3298 483.216 95.2513 482.028 94.0332ZM479.919 6.85297C480.286 7.92201 482.228 7.86238 482.441 6.58038C482.837 4.20379 479.123 4.51897 479.919 6.85297ZM484.106 94.0332C482.922 95.2513 484.621 97.3766 485.942 96.0393C487.262 94.7019 485.188 92.9216 484.106 94.0332ZM483.74 6.52076C484.204 8.30108 486.9 7.71332 486.214 5.68171C485.703 4.16119 483.412 5.26006 483.74 6.52076ZM487.569 95.3237C488.041 97.1083 490.725 96.5035 490.039 94.4847C489.558 93.0664 487.245 94.1056 487.569 95.3237ZM487.892 6.85297C488.51 8.67162 491.572 6.59742 489.626 5.12802C488.476 4.25915 487.501 5.69448 487.892 6.85297ZM491.726 95.6559C492.377 97.5811 495.716 95.3152 493.378 93.9821C492.228 93.3262 491.321 94.4634 491.726 95.6559ZM493.834 5.23024C492.803 4.16972 490.742 5.79671 491.998 7.23203C493.101 8.48848 495.009 6.43558 493.834 5.23024ZM497.663 94.0332C496.577 92.9216 494.554 94.7487 495.827 96.0393C497.101 97.3298 498.851 95.2513 497.663 94.0332ZM495.908 5.23024C494.724 6.44835 496.423 8.57366 497.744 7.2363C499.064 5.89892 496.99 4.11861 495.908 5.23024ZM499.741 96.1074C500.759 97.1509 502.825 95.5878 501.573 94.1013C500.666 93.0195 498.468 94.8084 499.741 96.1074ZM499.375 6.52076C499.839 8.30108 502.535 7.71332 501.85 5.68171C501.338 4.16119 499.047 5.26005 499.375 6.52076ZM503.276 95.0724C503.276 97.4831 507.199 96.2096 505.542 94.2888C504.661 93.2666 503.276 94.0715 503.276 95.0724ZM503.532 6.85297C504.179 8.76532 507.455 6.57612 505.248 5.11951C504.192 4.421 503.123 5.64764 503.532 6.85297ZM509.465 94.0289C508.323 93.028 506.347 94.736 507.629 96.035C509.022 97.449 510.645 95.0597 509.465 94.0289ZM507.361 6.85297C507.727 7.92201 509.669 7.86238 509.882 6.58038C510.278 4.20379 506.564 4.51897 507.361 6.85297ZM511.509 93.9991C510.232 94.7998 512.025 97.5853 513.379 96.035C514.665 94.5656 512.681 93.2666 511.509 93.9991ZM511.177 6.52076C511.641 8.30108 514.337 7.71332 513.652 5.68171C513.141 4.16119 510.849 5.26005 511.177 6.52076ZM515.027 95.345C515.215 96.3246 517.021 97.1126 517.468 95.6432C518.273 93.0068 514.687 93.5775 515.027 95.345ZM515.334 6.85296C515.99 8.79513 519.052 6.58464 516.995 5.17486C515.96 4.46359 514.929 5.64763 515.334 6.85296ZM517.924 90.8389C516.13 92.6405 520.505 94.3739 520.079 91.5714C519.913 90.4811 518.673 90.085 517.924 90.8389ZM517.924 86.6862C516.13 88.4878 520.505 90.2213 520.079 87.4188C519.913 86.3284 518.673 85.9323 517.924 86.6862ZM520.032 84.6461C520.892 83.2789 518.541 81.3708 517.668 83.0957C516.85 84.7057 519.436 85.5916 520.032 84.6461ZM517.924 80.7745C518.673 81.5284 519.917 81.1323 520.079 80.0419C520.505 77.2437 516.13 78.9729 517.924 80.7745ZM517.928 74.8671C516.237 76.5963 520.134 78.2957 520.109 75.9021C520.096 74.701 518.669 74.109 517.928 74.8671ZM517.566 72.3244C517.872 73.5766 520.701 73.7682 520.019 71.4981C519.529 69.8669 517.178 70.7272 517.566 72.3244ZM517.924 68.9554C519.721 70.7485 521.454 66.3701 518.656 66.796C517.57 66.9621 517.17 68.2015 517.924 68.9554ZM517.562 64.3385C518.034 66.1231 520.718 65.5183 520.032 63.4995C519.551 62.0812 517.238 63.1204 517.562 64.3385ZM517.924 59.2148C517.17 59.9686 517.566 61.208 518.656 61.3742C521.454 61.8001 519.725 57.4217 517.924 59.2148ZM520.028 57.1704C520.76 55.9991 519.461 54.0101 517.996 55.2964C516.446 56.655 519.231 58.4481 520.028 57.1704ZM517.924 53.3031C519.721 55.0962 521.454 50.7178 518.656 51.1437C517.57 51.3098 517.17 52.5492 517.924 53.3031ZM517.557 48.6905C517.881 49.9937 520.773 50.0406 520.032 47.8471C519.521 46.3351 517.238 47.4127 517.557 48.6905ZM517.566 44.853C517.872 46.1052 520.701 46.2968 520.019 44.0267C519.529 42.3954 517.178 43.2558 517.566 44.853ZM517.924 41.484C519.653 43.1791 521.348 39.2735 518.959 39.2991C517.757 39.3118 517.165 40.7386 517.924 41.484ZM517.562 36.8671C518.026 38.6474 520.722 38.0597 520.036 36.028C519.525 34.5075 517.234 35.6064 517.562 36.8671ZM517.924 31.7434C517.17 32.4972 517.566 33.7366 518.656 33.9027C521.454 34.3286 519.725 29.9503 517.924 31.7434ZM520.028 29.699C520.76 28.5277 519.461 26.5387 517.996 27.8249C516.446 29.1836 519.231 30.9767 520.028 29.699ZM517.562 25.048C517.979 26.6792 520.27 26.3896 520.283 24.7967C520.3 23.0462 517.153 23.4593 517.562 25.048ZM517.557 21.219C518.03 23.1143 521.655 21.662 519.742 20.0222C518.618 19.0554 517.327 20.2905 517.557 21.219ZM517.924 16.091C516.867 17.126 518.486 19.0384 519.781 18.1056C521.075 17.1728 519.448 14.5961 517.924 16.091ZM520.002 14.0126C521.003 12.8711 519.295 10.8906 517.996 12.1769C516.586 13.5739 518.971 15.1924 520.002 14.0126ZM517.924 8.42459C516.867 9.45956 518.486 11.3719 519.781 10.4392C521.075 9.50641 519.448 6.92963 517.924 8.42459Z" fill="#4F4F4F"/>
<path d="M369.35 36.964L359.846 37V34.84L364.238 31.186C364.598 30.898 364.904 30.628 365.156 30.376C365.408 30.112 365.612 29.86 365.768 29.62C365.936 29.368 366.056 29.122 366.128 28.882C366.212 28.63 366.254 28.366 366.254 28.09C366.254 27.418 366.092 26.908 365.768 26.56C365.456 26.2 365 26.02 364.4 26.02C363.776 26.02 363.29 26.224 362.942 26.632C362.606 27.04 362.438 27.616 362.438 28.36H359.54C359.54 27.364 359.738 26.5 360.134 25.768C360.542 25.024 361.106 24.448 361.826 24.04C362.558 23.632 363.41 23.428 364.382 23.428C365.402 23.428 366.272 23.608 366.992 23.968C367.712 24.316 368.264 24.826 368.648 25.498C369.044 26.158 369.242 26.962 369.242 27.91C369.242 28.366 369.176 28.804 369.044 29.224C368.912 29.632 368.726 30.028 368.486 30.412C368.246 30.796 367.958 31.168 367.622 31.528C367.286 31.888 366.908 32.242 366.488 32.59L363.536 35.056L362.456 34.264H369.35V36.964ZM379.816 23.68V37H377.062V23.68H379.816ZM370.438 32.086L376.18 23.68H379.258L373.39 32.302L370.438 32.086ZM381.454 34.642H370.438V32.086H381.454V34.642ZM394.635 23.68L385.653 35.416V31.024L391.197 23.68H394.635ZM386.391 23.68V37H383.475V23.68H386.391ZM388.281 31.69L390.135 29.134L394.671 37H391.305L388.281 31.69ZM407.354 26.2C406.55 26.2 405.878 26.38 405.338 26.74C404.798 27.088 404.39 27.58 404.114 28.216C403.838 28.852 403.7 29.602 403.7 30.466C403.7 31.354 403.856 32.098 404.168 32.698C404.48 33.298 404.906 33.748 405.446 34.048C405.998 34.336 406.628 34.48 407.336 34.48C407.936 34.48 408.446 34.402 408.866 34.246C409.286 34.09 409.622 33.874 409.874 33.598C410.138 33.322 410.33 33.01 410.45 32.662C410.582 32.314 410.648 31.954 410.648 31.582V30.52L412.034 31.906H407.102V29.35H413.366V37H410.864L410.63 35.182L410.954 35.452C410.762 35.8 410.462 36.106 410.054 36.37C409.658 36.634 409.19 36.838 408.65 36.982C408.122 37.126 407.558 37.198 406.958 37.198C405.722 37.198 404.624 36.916 403.664 36.352C402.716 35.776 401.972 34.978 401.432 33.958C400.892 32.938 400.622 31.744 400.622 30.376C400.622 29.032 400.904 27.844 401.468 26.812C402.032 25.768 402.824 24.952 403.844 24.364C404.864 23.764 406.058 23.464 407.426 23.464C408.494 23.464 409.454 23.662 410.306 24.058C411.17 24.442 411.872 24.994 412.412 25.714C412.952 26.422 413.27 27.256 413.366 28.216H410.306C410.138 27.508 409.778 26.998 409.226 26.686C408.674 26.362 408.05 26.2 407.354 26.2ZM415.126 32.482C415.126 31.534 415.336 30.706 415.756 29.998C416.188 29.278 416.776 28.72 417.52 28.324C418.276 27.928 419.134 27.73 420.094 27.73C421.054 27.73 421.906 27.928 422.65 28.324C423.394 28.72 423.976 29.278 424.396 29.998C424.828 30.706 425.044 31.534 425.044 32.482C425.044 33.43 424.828 34.258 424.396 34.966C423.976 35.674 423.394 36.226 422.65 36.622C421.906 37.018 421.054 37.216 420.094 37.216C419.134 37.216 418.276 37.018 417.52 36.622C416.776 36.226 416.188 35.674 415.756 34.966C415.336 34.258 415.126 33.43 415.126 32.482ZM417.916 32.464C417.916 32.92 418.006 33.322 418.186 33.67C418.378 34.006 418.636 34.27 418.96 34.462C419.284 34.642 419.662 34.732 420.094 34.732C420.526 34.732 420.904 34.642 421.228 34.462C421.552 34.27 421.804 34.006 421.984 33.67C422.164 33.322 422.254 32.92 422.254 32.464C422.254 32.008 422.164 31.612 421.984 31.276C421.804 30.94 421.552 30.682 421.228 30.502C420.904 30.31 420.526 30.214 420.094 30.214C419.662 30.214 419.284 30.31 418.96 30.502C418.636 30.682 418.378 30.94 418.186 31.276C418.006 31.612 417.916 32.008 417.916 32.464ZM429.603 37H426.831V23.428H429.603V37ZM435.643 37.234C434.779 37.234 434.029 37.042 433.393 36.658C432.757 36.274 432.259 35.734 431.899 35.038C431.551 34.33 431.377 33.502 431.377 32.554C431.377 31.594 431.557 30.754 431.917 30.034C432.277 29.302 432.787 28.732 433.447 28.324C434.119 27.916 434.911 27.712 435.823 27.712C436.387 27.712 436.909 27.814 437.389 28.018C437.881 28.222 438.259 28.492 438.523 28.828V23.428H441.295V37H438.685L438.541 35.848C438.301 36.256 437.917 36.592 437.389 36.856C436.873 37.108 436.291 37.234 435.643 37.234ZM436.309 34.696C436.741 34.696 437.119 34.606 437.443 34.426C437.779 34.234 438.037 33.97 438.217 33.634C438.409 33.286 438.505 32.89 438.505 32.446C438.505 31.99 438.409 31.594 438.217 31.258C438.037 30.922 437.779 30.664 437.443 30.484C437.119 30.292 436.741 30.196 436.309 30.196C435.877 30.196 435.499 30.292 435.175 30.484C434.851 30.676 434.599 30.94 434.419 31.276C434.251 31.612 434.167 32.002 434.167 32.446C434.167 32.89 434.251 33.28 434.419 33.616C434.599 33.952 434.851 34.216 435.175 34.408C435.499 34.6 435.877 34.696 436.309 34.696ZM451.758 23.68V37H448.842V23.68H451.758ZM454.242 32.572H451.038V29.98H453.594C454.302 29.98 454.83 29.83 455.178 29.53C455.526 29.218 455.7 28.75 455.7 28.126C455.7 27.502 455.526 27.04 455.178 26.74C454.83 26.428 454.302 26.272 453.594 26.272H451.038V23.68H454.242C455.154 23.68 455.946 23.866 456.618 24.238C457.302 24.61 457.83 25.132 458.202 25.804C458.586 26.464 458.778 27.238 458.778 28.126C458.778 29.014 458.586 29.794 458.202 30.466C457.83 31.126 457.302 31.642 456.618 32.014C455.946 32.386 455.154 32.572 454.242 32.572ZM463.229 37H460.457V23.428H463.229V37ZM468.207 37.234C467.259 37.234 466.503 36.976 465.939 36.46C465.387 35.932 465.111 35.23 465.111 34.354C465.111 33.526 465.393 32.866 465.957 32.374C466.533 31.882 467.361 31.594 468.441 31.51L470.961 31.312V31.168C470.961 30.868 470.901 30.622 470.781 30.43C470.661 30.226 470.487 30.076 470.259 29.98C470.043 29.872 469.767 29.818 469.431 29.818C468.843 29.818 468.393 29.926 468.081 30.142C467.781 30.358 467.631 30.67 467.631 31.078H465.327C465.327 30.394 465.501 29.8 465.849 29.296C466.197 28.792 466.689 28.402 467.325 28.126C467.973 27.85 468.723 27.712 469.575 27.712C470.451 27.712 471.189 27.868 471.789 28.18C472.401 28.492 472.863 28.948 473.175 29.548C473.499 30.148 473.661 30.88 473.661 31.744V37H471.213L471.033 35.812C470.889 36.22 470.547 36.562 470.007 36.838C469.479 37.102 468.879 37.234 468.207 37.234ZM469.179 35.182C469.707 35.182 470.139 35.056 470.475 34.804C470.811 34.54 470.979 34.15 470.979 33.634V33.148L469.575 33.274C468.975 33.322 468.549 33.424 468.297 33.58C468.057 33.724 467.937 33.94 467.937 34.228C467.937 34.552 468.039 34.792 468.243 34.948C468.447 35.104 468.759 35.182 469.179 35.182ZM474.895 28H481.087V30.304H474.895V28ZM479.377 37H476.605V25.21H479.377V37ZM486.601 37.234C485.701 37.234 484.897 37.03 484.189 36.622C483.493 36.214 482.941 35.656 482.533 34.948C482.137 34.228 481.939 33.406 481.939 32.482C481.939 31.546 482.131 30.724 482.515 30.016C482.911 29.296 483.457 28.732 484.153 28.324C484.849 27.916 485.647 27.712 486.547 27.712C487.495 27.712 488.311 27.91 488.995 28.306C489.679 28.69 490.207 29.242 490.579 29.962C490.951 30.67 491.137 31.516 491.137 32.5V33.202L483.397 33.238L483.433 31.528H488.383C488.383 31.048 488.221 30.67 487.897 30.394C487.573 30.106 487.129 29.962 486.565 29.962C486.097 29.962 485.713 30.052 485.413 30.232C485.125 30.412 484.909 30.694 484.765 31.078C484.621 31.45 484.549 31.93 484.549 32.518C484.549 33.358 484.717 33.982 485.053 34.39C485.401 34.786 485.935 34.984 486.655 34.984C487.183 34.984 487.621 34.894 487.969 34.714C488.317 34.534 488.539 34.282 488.635 33.958H491.173C491.017 34.954 490.525 35.752 489.697 36.352C488.869 36.94 487.837 37.234 486.601 37.234ZM496.739 37.234C495.875 37.234 495.125 37.042 494.489 36.658C493.853 36.274 493.355 35.734 492.995 35.038C492.647 34.33 492.473 33.502 492.473 32.554C492.473 31.594 492.653 30.754 493.013 30.034C493.373 29.302 493.883 28.732 494.543 28.324C495.215 27.916 496.007 27.712 496.919 27.712C497.483 27.712 498.005 27.814 498.485 28.018C498.977 28.222 499.355 28.492 499.619 28.828V23.428H502.391V37H499.781L499.637 35.848C499.397 36.256 499.013 36.592 498.485 36.856C497.969 37.108 497.387 37.234 496.739 37.234ZM497.405 34.696C497.837 34.696 498.215 34.606 498.539 34.426C498.875 34.234 499.133 33.97 499.313 33.634C499.505 33.286 499.601 32.89 499.601 32.446C499.601 31.99 499.505 31.594 499.313 31.258C499.133 30.922 498.875 30.664 498.539 30.484C498.215 30.292 497.837 30.196 497.405 30.196C496.973 30.196 496.595 30.292 496.271 30.484C495.947 30.676 495.695 30.94 495.515 31.276C495.347 31.612 495.263 32.002 495.263 32.446C495.263 32.89 495.347 33.28 495.515 33.616C495.695 33.952 495.947 34.216 496.271 34.408C496.595 34.6 496.973 34.696 497.405 34.696Z" fill="#F6F6F6"/>
<path d="M361.184 53.324V62H360.008V53.324H361.184ZM360.212 62V60.908H365V62H360.212ZM370.262 56.132H371.378V62H370.37L370.25 61.112C370.082 61.416 369.818 61.664 369.458 61.856C369.098 62.048 368.702 62.144 368.27 62.144C367.59 62.144 367.062 61.932 366.686 61.508C366.318 61.076 366.134 60.5 366.134 59.78V56.132H367.262V59.408C367.262 60.032 367.386 60.48 367.634 60.752C367.89 61.016 368.234 61.148 368.666 61.148C369.186 61.148 369.582 60.988 369.854 60.668C370.126 60.34 370.262 59.86 370.262 59.228V56.132ZM373.734 62H372.438L374.49 59.096L372.45 56.132H373.758L375.246 58.316L376.698 56.132H377.982L375.942 59.096L377.946 62H376.638L375.174 59.852L373.734 62ZM383.099 56.132H384.215V62H383.207L383.087 61.112C382.919 61.416 382.655 61.664 382.295 61.856C381.935 62.048 381.539 62.144 381.107 62.144C380.427 62.144 379.899 61.932 379.523 61.508C379.155 61.076 378.971 60.5 378.971 59.78V56.132H380.099V59.408C380.099 60.032 380.223 60.48 380.471 60.752C380.727 61.016 381.071 61.148 381.503 61.148C382.023 61.148 382.419 60.988 382.691 60.668C382.963 60.34 383.099 59.86 383.099 59.228V56.132ZM389.332 56.084V57.116H388.828C388.292 57.116 387.868 57.272 387.556 57.584C387.252 57.888 387.1 58.324 387.1 58.892V62H385.972V56.144H387.028L387.124 57.32H387.016C387.096 56.936 387.288 56.624 387.592 56.384C387.896 56.136 388.276 56.012 388.732 56.012C388.836 56.012 388.932 56.02 389.02 56.036C389.116 56.044 389.22 56.06 389.332 56.084ZM391.154 56.132L393.218 61.844L392.522 62.804L389.966 56.132H391.154ZM390.122 64.628V63.704H390.878C391.062 63.704 391.23 63.684 391.382 63.644C391.534 63.612 391.674 63.536 391.802 63.416C391.93 63.304 392.038 63.124 392.126 62.876L394.598 56.132H395.762L392.99 63.32C392.79 63.824 392.538 64.188 392.234 64.412C391.93 64.636 391.554 64.748 391.106 64.748C390.922 64.748 390.75 64.736 390.59 64.712C390.43 64.696 390.274 64.668 390.122 64.628ZM402.787 62L399.487 53.324H400.747L402.859 58.868C402.955 59.108 403.047 59.36 403.135 59.624C403.223 59.88 403.311 60.172 403.399 60.5C403.503 60.156 403.603 59.844 403.699 59.564C403.795 59.284 403.879 59.048 403.951 58.856L406.051 53.324H407.275L404.011 62H402.787ZM408.331 62V56.132H409.459V62H408.331ZM408.883 54.74C408.683 54.74 408.507 54.668 408.355 54.524C408.211 54.372 408.139 54.196 408.139 53.996C408.139 53.788 408.211 53.612 408.355 53.468C408.507 53.324 408.683 53.252 408.883 53.252C409.091 53.252 409.267 53.324 409.411 53.468C409.555 53.612 409.627 53.788 409.627 53.996C409.627 54.196 409.555 54.372 409.411 54.524C409.267 54.668 409.091 54.74 408.883 54.74ZM412.236 62H411.216V53.168H412.344V57.14C412.536 56.756 412.82 56.464 413.196 56.264C413.572 56.064 414 55.964 414.48 55.964C415.04 55.964 415.52 56.1 415.92 56.372C416.32 56.636 416.628 57.004 416.844 57.476C417.06 57.948 417.168 58.488 417.168 59.096C417.168 59.68 417.056 60.204 416.832 60.668C416.608 61.132 416.288 61.496 415.872 61.76C415.464 62.016 414.976 62.144 414.408 62.144C413.952 62.144 413.536 62.04 413.16 61.832C412.792 61.624 412.512 61.324 412.32 60.932L412.236 62ZM412.356 59.048C412.356 59.456 412.428 59.816 412.572 60.128C412.724 60.44 412.936 60.684 413.208 60.86C413.488 61.036 413.82 61.124 414.204 61.124C414.588 61.124 414.916 61.036 415.188 60.86C415.46 60.684 415.668 60.44 415.812 60.128C415.964 59.816 416.04 59.456 416.04 59.048C416.04 58.648 415.964 58.296 415.812 57.992C415.668 57.68 415.46 57.436 415.188 57.26C414.916 57.076 414.588 56.984 414.204 56.984C413.82 56.984 413.488 57.072 413.208 57.248C412.936 57.424 412.724 57.668 412.572 57.98C412.428 58.284 412.356 58.64 412.356 59.048ZM421.064 62.144C420.496 62.144 419.992 62.016 419.552 61.76C419.112 61.496 418.768 61.136 418.52 60.68C418.272 60.216 418.148 59.68 418.148 59.072C418.148 58.456 418.268 57.916 418.508 57.452C418.756 56.988 419.092 56.624 419.516 56.36C419.948 56.096 420.448 55.964 421.016 55.964C421.576 55.964 422.06 56.084 422.468 56.324C422.884 56.564 423.204 56.9 423.428 57.332C423.66 57.764 423.776 58.272 423.776 58.856V59.276L418.748 59.288L418.772 58.532H422.648C422.648 58.044 422.5 57.652 422.204 57.356C421.908 57.06 421.512 56.912 421.016 56.912C420.64 56.912 420.316 56.996 420.044 57.164C419.78 57.324 419.576 57.564 419.432 57.884C419.296 58.196 419.228 58.572 419.228 59.012C419.228 59.716 419.388 60.26 419.708 60.644C420.028 61.02 420.488 61.208 421.088 61.208C421.528 61.208 421.888 61.12 422.168 60.944C422.448 60.768 422.636 60.512 422.732 60.176H423.788C423.644 60.8 423.336 61.284 422.864 61.628C422.392 61.972 421.792 62.144 421.064 62.144ZM428.545 59.336V58.328H441.001V59.336H428.545ZM447.52 53.324V62H446.344V53.324H447.52ZM448.847 56.132H452.231V57.08H448.847V56.132ZM452.267 53.216V54.188C452.195 54.188 452.115 54.188 452.027 54.188C451.947 54.188 451.859 54.188 451.763 54.188C451.395 54.188 451.147 54.276 451.019 54.452C450.899 54.628 450.839 54.876 450.839 55.196V62H449.711V55.196C449.711 54.716 449.791 54.328 449.951 54.032C450.119 53.728 450.339 53.508 450.611 53.372C450.891 53.236 451.211 53.168 451.571 53.168C451.683 53.168 451.799 53.172 451.919 53.18C452.039 53.188 452.155 53.2 452.267 53.216ZM459.945 53.864V62H458.769V53.864H459.945ZM456.153 54.404V53.324H462.549V54.404H456.153ZM466.305 56.084V57.116H465.801C465.265 57.116 464.841 57.272 464.529 57.584C464.225 57.888 464.073 58.324 464.073 58.892V62H462.945V56.144H464.001L464.097 57.32H463.989C464.069 56.936 464.261 56.624 464.565 56.384C464.869 56.136 465.249 56.012 465.705 56.012C465.809 56.012 465.905 56.02 465.993 56.036C466.089 56.044 466.193 56.06 466.305 56.084ZM471.539 56.132H472.655V62H471.647L471.527 61.112C471.359 61.416 471.095 61.664 470.735 61.856C470.375 62.048 469.979 62.144 469.547 62.144C468.867 62.144 468.339 61.932 467.963 61.508C467.595 61.076 467.411 60.5 467.411 59.78V56.132H468.539V59.408C468.539 60.032 468.663 60.48 468.911 60.752C469.167 61.016 469.511 61.148 469.943 61.148C470.463 61.148 470.859 60.988 471.131 60.668C471.403 60.34 471.539 59.86 471.539 59.228V56.132ZM476.826 62.144C476.258 62.144 475.754 62.016 475.314 61.76C474.874 61.496 474.53 61.136 474.282 60.68C474.034 60.216 473.91 59.68 473.91 59.072C473.91 58.456 474.03 57.916 474.27 57.452C474.518 56.988 474.854 56.624 475.278 56.36C475.71 56.096 476.21 55.964 476.778 55.964C477.338 55.964 477.822 56.084 478.23 56.324C478.646 56.564 478.966 56.9 479.19 57.332C479.422 57.764 479.538 58.272 479.538 58.856V59.276L474.51 59.288L474.534 58.532H478.41C478.41 58.044 478.262 57.652 477.966 57.356C477.67 57.06 477.274 56.912 476.778 56.912C476.402 56.912 476.078 56.996 475.806 57.164C475.542 57.324 475.338 57.564 475.194 57.884C475.058 58.196 474.99 58.572 474.99 59.012C474.99 59.716 475.15 60.26 475.47 60.644C475.79 61.02 476.25 61.208 476.85 61.208C477.29 61.208 477.65 61.12 477.93 60.944C478.21 60.768 478.398 60.512 478.494 60.176H479.55C479.406 60.8 479.098 61.284 478.626 61.628C478.154 61.972 477.554 62.144 476.826 62.144ZM361.184 69.324V78H360.008V69.324H361.184ZM365.24 70.404H360.092V69.324H365.24V70.404ZM364.592 74.316H360.068V73.248H364.592V74.316ZM365.751 75.06C365.751 74.46 365.883 73.928 366.147 73.464C366.411 73 366.771 72.636 367.227 72.372C367.691 72.108 368.219 71.976 368.811 71.976C369.403 71.976 369.927 72.108 370.383 72.372C370.839 72.636 371.199 73 371.463 73.464C371.727 73.928 371.859 74.46 371.859 75.06C371.859 75.66 371.727 76.192 371.463 76.656C371.199 77.12 370.839 77.484 370.383 77.748C369.927 78.012 369.403 78.144 368.811 78.144C368.219 78.144 367.691 78.012 367.227 77.748C366.771 77.484 366.411 77.12 366.147 76.656C365.883 76.192 365.751 75.66 365.751 75.06ZM366.891 75.06C366.891 75.468 366.971 75.828 367.131 76.14C367.299 76.452 367.527 76.696 367.815 76.872C368.103 77.048 368.435 77.136 368.811 77.136C369.187 77.136 369.519 77.048 369.807 76.872C370.095 76.696 370.319 76.452 370.479 76.14C370.647 75.828 370.731 75.468 370.731 75.06C370.731 74.644 370.647 74.284 370.479 73.98C370.319 73.668 370.095 73.424 369.807 73.248C369.519 73.072 369.187 72.984 368.811 72.984C368.435 72.984 368.103 73.072 367.815 73.248C367.527 73.424 367.299 73.668 367.131 73.98C366.971 74.284 366.891 74.644 366.891 75.06ZM376.588 72.084V73.116H376.084C375.548 73.116 375.124 73.272 374.812 73.584C374.508 73.888 374.356 74.324 374.356 74.892V78H373.228V72.144H374.284L374.38 73.32H374.272C374.352 72.936 374.544 72.624 374.848 72.384C375.152 72.136 375.532 72.012 375.988 72.012C376.092 72.012 376.188 72.02 376.276 72.036C376.372 72.044 376.476 72.06 376.588 72.084ZM383.411 74.472L380.471 69.324H381.791L383.723 72.792C383.779 72.896 383.827 72.992 383.867 73.08C383.915 73.168 383.963 73.264 384.011 73.368C384.051 73.296 384.079 73.236 384.095 73.188C384.119 73.132 384.143 73.076 384.167 73.02C384.199 72.964 384.243 72.888 384.299 72.792L386.219 69.324H387.503L384.587 74.472V78H383.411V74.472ZM386.985 75.06C386.985 74.46 387.117 73.928 387.381 73.464C387.645 73 388.005 72.636 388.461 72.372C388.925 72.108 389.453 71.976 390.045 71.976C390.637 71.976 391.161 72.108 391.617 72.372C392.073 72.636 392.433 73 392.697 73.464C392.961 73.928 393.093 74.46 393.093 75.06C393.093 75.66 392.961 76.192 392.697 76.656C392.433 77.12 392.073 77.484 391.617 77.748C391.161 78.012 390.637 78.144 390.045 78.144C389.453 78.144 388.925 78.012 388.461 77.748C388.005 77.484 387.645 77.12 387.381 76.656C387.117 76.192 386.985 75.66 386.985 75.06ZM388.125 75.06C388.125 75.468 388.205 75.828 388.365 76.14C388.533 76.452 388.761 76.696 389.049 76.872C389.337 77.048 389.669 77.136 390.045 77.136C390.421 77.136 390.753 77.048 391.041 76.872C391.329 76.696 391.553 76.452 391.713 76.14C391.881 75.828 391.965 75.468 391.965 75.06C391.965 74.644 391.881 74.284 391.713 73.98C391.553 73.668 391.329 73.424 391.041 73.248C390.753 73.072 390.421 72.984 390.045 72.984C389.669 72.984 389.337 73.072 389.049 73.248C388.761 73.424 388.533 73.668 388.365 73.98C388.205 74.284 388.125 74.644 388.125 75.06ZM398.377 72.132H399.493V78H398.485L398.365 77.112C398.197 77.416 397.933 77.664 397.573 77.856C397.213 78.048 396.817 78.144 396.385 78.144C395.705 78.144 395.177 77.932 394.801 77.508C394.433 77.076 394.249 76.5 394.249 75.78V72.132H395.377V75.408C395.377 76.032 395.501 76.48 395.749 76.752C396.005 77.016 396.349 77.148 396.781 77.148C397.301 77.148 397.697 76.988 397.969 76.668C398.241 76.34 398.377 75.86 398.377 75.228V72.132ZM404.61 72.084V73.116H404.106C403.57 73.116 403.146 73.272 402.834 73.584C402.53 73.888 402.378 74.324 402.378 74.892V78H401.25V72.144H402.306L402.402 73.32H402.294C402.374 72.936 402.566 72.624 402.87 72.384C403.174 72.136 403.554 72.012 404.01 72.012C404.114 72.012 404.21 72.02 404.298 72.036C404.394 72.044 404.498 72.06 404.61 72.084ZM410.557 69.324V78H409.381V69.324H410.557ZM412.753 74.904H410.293V73.848H412.501C413.085 73.848 413.533 73.692 413.845 73.38C414.157 73.06 414.313 72.632 414.313 72.096C414.313 71.552 414.157 71.132 413.845 70.836C413.533 70.532 413.101 70.38 412.549 70.38H410.029V69.324H412.753C413.321 69.324 413.813 69.44 414.229 69.672C414.645 69.904 414.969 70.228 415.201 70.644C415.433 71.06 415.549 71.548 415.549 72.108C415.549 72.644 415.433 73.124 415.201 73.548C414.969 73.972 414.645 74.304 414.229 74.544C413.813 74.784 413.321 74.904 412.753 74.904ZM420.169 72.084V73.116H419.665C419.129 73.116 418.705 73.272 418.393 73.584C418.089 73.888 417.937 74.324 417.937 74.892V78H416.809V72.144H417.865L417.961 73.32H417.853C417.933 72.936 418.125 72.624 418.429 72.384C418.733 72.136 419.113 72.012 419.569 72.012C419.673 72.012 419.769 72.02 419.857 72.036C419.953 72.044 420.057 72.06 420.169 72.084ZM420.752 75.06C420.752 74.46 420.884 73.928 421.148 73.464C421.412 73 421.772 72.636 422.228 72.372C422.692 72.108 423.22 71.976 423.812 71.976C424.404 71.976 424.928 72.108 425.384 72.372C425.84 72.636 426.2 73 426.464 73.464C426.728 73.928 426.86 74.46 426.86 75.06C426.86 75.66 426.728 76.192 426.464 76.656C426.2 77.12 425.84 77.484 425.384 77.748C424.928 78.012 424.404 78.144 423.812 78.144C423.22 78.144 422.692 78.012 422.228 77.748C421.772 77.484 421.412 77.12 421.148 76.656C420.884 76.192 420.752 75.66 420.752 75.06ZM421.892 75.06C421.892 75.468 421.972 75.828 422.132 76.14C422.3 76.452 422.528 76.696 422.816 76.872C423.104 77.048 423.436 77.136 423.812 77.136C424.188 77.136 424.52 77.048 424.808 76.872C425.096 76.696 425.32 76.452 425.48 76.14C425.648 75.828 425.732 75.468 425.732 75.06C425.732 74.644 425.648 74.284 425.48 73.98C425.32 73.668 425.096 73.424 424.808 73.248C424.52 73.072 424.188 72.984 423.812 72.984C423.436 72.984 423.104 73.072 422.816 73.248C422.528 73.424 422.3 73.668 422.132 73.98C421.972 74.284 421.892 74.644 421.892 75.06ZM430.581 78.144C430.013 78.144 429.525 78.016 429.117 77.76C428.709 77.496 428.393 77.132 428.169 76.668C427.953 76.204 427.845 75.676 427.845 75.084C427.845 74.484 427.957 73.952 428.181 73.488C428.405 73.016 428.725 72.644 429.141 72.372C429.557 72.1 430.053 71.964 430.629 71.964C431.085 71.964 431.489 72.06 431.841 72.252C432.201 72.436 432.481 72.712 432.681 73.08V69.168H433.797V78H432.789L432.693 76.932C432.501 77.324 432.217 77.624 431.841 77.832C431.473 78.04 431.053 78.144 430.581 78.144ZM430.809 77.124C431.193 77.124 431.521 77.036 431.793 76.86C432.073 76.684 432.289 76.44 432.441 76.128C432.593 75.816 432.669 75.456 432.669 75.048C432.669 74.64 432.593 74.284 432.441 73.98C432.289 73.668 432.073 73.424 431.793 73.248C431.521 73.072 431.193 72.984 430.809 72.984C430.425 72.984 430.097 73.076 429.825 73.26C429.553 73.436 429.345 73.68 429.201 73.992C429.057 74.296 428.985 74.648 428.985 75.048C428.985 75.456 429.057 75.816 429.201 76.128C429.345 76.44 429.553 76.684 429.825 76.86C430.097 77.036 430.425 77.124 430.809 77.124ZM439.6 72.132H440.716V78H439.708L439.588 77.112C439.42 77.416 439.156 77.664 438.796 77.856C438.436 78.048 438.04 78.144 437.608 78.144C436.928 78.144 436.4 77.932 436.024 77.508C435.656 77.076 435.472 76.5 435.472 75.78V72.132H436.6V75.408C436.6 76.032 436.724 76.48 436.972 76.752C437.228 77.016 437.572 77.148 438.004 77.148C438.524 77.148 438.92 76.988 439.192 76.668C439.464 76.34 439.6 75.86 439.6 75.228V72.132ZM441.971 75.072C441.971 74.456 442.091 73.916 442.331 73.452C442.579 72.988 442.919 72.624 443.351 72.36C443.783 72.096 444.283 71.964 444.851 71.964C445.587 71.964 446.199 72.16 446.687 72.552C447.175 72.944 447.467 73.464 447.563 74.112H446.435C446.339 73.736 446.151 73.452 445.871 73.26C445.591 73.068 445.263 72.972 444.887 72.972C444.535 72.972 444.223 73.06 443.951 73.236C443.679 73.404 443.467 73.644 443.315 73.956C443.163 74.268 443.087 74.636 443.087 75.06C443.087 75.484 443.159 75.852 443.303 76.164C443.447 76.468 443.651 76.708 443.915 76.884C444.179 77.052 444.487 77.136 444.839 77.136C445.239 77.136 445.583 77.036 445.871 76.836C446.159 76.636 446.351 76.364 446.447 76.02H447.575C447.503 76.444 447.339 76.816 447.083 77.136C446.835 77.448 446.515 77.696 446.123 77.88C445.739 78.056 445.311 78.144 444.839 78.144C444.263 78.144 443.759 78.016 443.327 77.76C442.903 77.504 442.571 77.148 442.331 76.692C442.091 76.228 441.971 75.688 441.971 75.072ZM448.262 72.132H451.694V73.08H448.262V72.132ZM450.542 78H449.414V70.296H450.542V78ZM453.303 78.144C453.071 78.144 452.867 78.064 452.691 77.904C452.523 77.736 452.439 77.536 452.439 77.304C452.439 77.064 452.523 76.864 452.691 76.704C452.867 76.536 453.071 76.452 453.303 76.452C453.535 76.452 453.735 76.536 453.903 76.704C454.071 76.864 454.155 77.064 454.155 77.304C454.155 77.536 454.071 77.736 453.903 77.904C453.735 78.064 453.535 78.144 453.303 78.144Z" fill="#F6F6F6"/>
</g>
<path d="M323 51.5001C323.276 51.5001 323.5 51.2762 323.5 51.0001C323.5 50.724 323.276 50.5001 323 50.5001L323 51.0001L323 51.5001ZM0.333333 51.0001C0.333333 52.4729 1.52724 53.6668 3 53.6668C4.47276 53.6668 5.66667 52.4729 5.66667 51.0001C5.66667 49.5274 4.47276 48.3335 3 48.3335C1.52724 48.3335 0.333333 49.5274 0.333333 51.0001ZM323 51.0001L323 50.5001L289.897 50.5001L289.897 51.0001L289.897 51.5001L323 51.5001L323 51.0001ZM289.897 51.0001L289.897 50.5001L3 50.5001L3 51.0001L3 51.5001L289.897 51.5001L289.897 51.0001Z" fill="black" fill-opacity="0.6"/>
<path d="M322.5 50.6402C322.713 50.4726 302.298 45.9421 304.123 50.8665" stroke="black" stroke-opacity="0.6"/>
<defs>
<clipPath id="clip0_1661_145">
<rect width="101.64" height="221.032" fill="white" transform="translate(304 101.64) rotate(-90)"/>
</clipPath>
</defs>
</svg>
